<?xml version="1.0" encoding="UTF-8" standalone="no"?>
<!DOCTYPE svg PUBLIC "-//W3C//DTD SVG 1.1//EN"
 "http://www.w3.org/Graphics/SVG/1.1/DTD/svg11.dtd">
<!-- Generated by graphviz version 2.40.1 (20161225.0304)
 -->
<!-- Title: G Pages: 1 -->
<svg width="176pt" height="366pt"
 viewBox="0.00 0.00 176.02 366.00" xmlns="http://www.w3.org/2000/svg" xmlns:xlink="http://www.w3.org/1999/xlink">
<g id="graph0" class="graph" transform="scale(1 1) rotate(0) translate(4 362)">
<title>G</title>
<polygon fill="#ffffff" stroke="transparent" points="-4,4 -4,-362 172.024,-362 172.024,4 -4,4"/>
<!-- A0 -->
<g id="node1" class="node">
<title>A0</title>
<ellipse fill="none" stroke="#000000" cx="84.012" cy="-347" rx="11" ry="11"/>
</g>
<!-- A1 -->
<g id="node2" class="node">
<title>A1</title>
<path fill="none" stroke="#000000" d="M135.9779,-288C135.9779,-288 32.0461,-288 32.0461,-288 26.0461,-288 20.0461,-282 20.0461,-276 20.0461,-276 20.0461,-264 20.0461,-264 20.0461,-258 26.0461,-252 32.0461,-252 32.0461,-252 135.9779,-252 135.9779,-252 141.9779,-252 147.9779,-258 147.9779,-264 147.9779,-264 147.9779,-276 147.9779,-276 147.9779,-282 141.9779,-288 135.9779,-288"/>
<text text-anchor="middle" x="84.012" y="-267" font-family="Helvetica,sans-Serif" font-size="10.00" fill="#000000">Synthesize with Yosys</text>
</g>
<!-- A0&#45;&gt;A1 -->
<g id="edge1" class="edge">
<title>A0&#45;&gt;A1</title>
<path fill="none" stroke="#000000" d="M84.012,-335.9678C84.012,-326.124 84.012,-311.2813 84.012,-298.1664"/>
<polygon fill="#000000" stroke="#000000" points="84.012,-288.1474 88.5121,-298.1473 84.012,-293.1474 84.0121,-298.1474 84.0121,-298.1474 84.0121,-298.1474 84.012,-293.1474 79.5121,-298.1474 84.012,-288.1474 84.012,-288.1474"/>
<text text-anchor="middle" x="98.734" y="-309" font-family="Helvetica,sans-Serif" font-size="10.00" fill="#000000">verilog</text>
</g>
<!-- A2 -->
<g id="node3" class="node">
<title>A2</title>
<path fill="none" stroke="#000000" d="M151.1065,-204C151.1065,-204 16.9175,-204 16.9175,-204 10.9175,-204 4.9175,-198 4.9175,-192 4.9175,-192 4.9175,-180 4.9175,-180 4.9175,-174 10.9175,-168 16.9175,-168 16.9175,-168 151.1065,-168 151.1065,-168 157.1065,-168 163.1065,-174 163.1065,-180 163.1065,-180 163.1065,-192 163.1065,-192 163.1065,-198 157.1065,-204 151.1065,-204"/>
<text text-anchor="middle" x="84.012" y="-183" font-family="Helvetica,sans-Serif" font-size="10.00" fill="#000000">Place and Route with nextpnr</text>
</g>
<!-- A1&#45;&gt;A2 -->
<g id="edge2" class="edge">
<title>A1&#45;&gt;A2</title>
<path fill="none" stroke="#000000" d="M84.012,-251.7733C84.012,-240.8758 84.012,-226.7946 84.012,-214.4587"/>
<polygon fill="#000000" stroke="#000000" points="84.012,-204.1912 88.5121,-214.1911 84.012,-209.1912 84.0121,-214.1912 84.0121,-214.1912 84.0121,-214.1912 84.012,-209.1912 79.5121,-214.1912 84.012,-204.1912 84.012,-204.1912"/>
<text text-anchor="middle" x="94.57" y="-225" font-family="Helvetica,sans-Serif" font-size="10.00" fill="#000000">.json</text>
</g>
<!-- A3 -->
<g id="node4" class="node">
<title>A3</title>
<path fill="none" stroke="#000000" d="M156.036,-120C156.036,-120 11.988,-120 11.988,-120 5.988,-120 -.012,-114 -.012,-108 -.012,-108 -.012,-96 -.012,-96 -.012,-90 5.988,-84 11.988,-84 11.988,-84 156.036,-84 156.036,-84 162.036,-84 168.036,-90 168.036,-96 168.036,-96 168.036,-108 168.036,-108 168.036,-114 162.036,-120 156.036,-120"/>
<text text-anchor="middle" x="84.012" y="-99" font-family="Helvetica,sans-Serif" font-size="10.00" fill="#000000">Pack to Bit Stream with icepack</text>
</g>
<!-- A2&#45;&gt;A3 -->
<g id="edge3" class="edge">
<title>A2&#45;&gt;A3</title>
<path fill="none" stroke="#000000" d="M84.012,-167.7733C84.012,-156.8758 84.012,-142.7946 84.012,-130.4587"/>
<polygon fill="#000000" stroke="#000000" points="84.012,-120.1912 88.5121,-130.1911 84.012,-125.1912 84.0121,-130.1912 84.0121,-130.1912 84.0121,-130.1912 84.012,-125.1912 79.5121,-130.1912 84.012,-120.1912 84.012,-120.1912"/>
<text text-anchor="middle" x="93.181" y="-141" font-family="Helvetica,sans-Serif" font-size="10.00" fill="#000000">.asc</text>
</g>
<!-- A4 -->
<g id="node5" class="node">
<title>A4</title>
<path fill="none" stroke="#000000" d="M152.926,-36C152.926,-36 15.098,-36 15.098,-36 9.098,-36 3.098,-30 3.098,-24 3.098,-24 3.098,-12 3.098,-12 3.098,-6 9.098,0 15.098,0 15.098,0 152.926,0 152.926,0 158.926,0 164.926,-6 164.926,-12 164.926,-12 164.926,-24 164.926,-24 164.926,-30 158.926,-36 152.926,-36"/>
<text text-anchor="middle" x="84.012" y="-15" font-family="Helvetica,sans-Serif" font-size="10.00" fill="#000000">Upload to FPGA with icesprog</text>
</g>
<!-- A3&#45;&gt;A4 -->
<g id="edge4" class="edge">
<title>A3&#45;&gt;A4</title>
<path fill="none" stroke="#000000" d="M84.012,-83.7733C84.012,-72.8758 84.012,-58.7946 84.012,-46.4587"/>
<polygon fill="#000000" stroke="#000000" points="84.012,-36.1912 88.5121,-46.1911 84.012,-41.1912 84.0121,-46.1912 84.0121,-46.1912 84.0121,-46.1912 84.012,-41.1912 79.5121,-46.1912 84.012,-36.1912 84.012,-36.1912"/>
<text text-anchor="middle" x="92.07" y="-57" font-family="Helvetica,sans-Serif" font-size="10.00" fill="#000000">.bin</text>
</g>
</g>
</svg>
