<?xml version="1.0" encoding="UTF-8" standalone="no"?>
<!DOCTYPE svg PUBLIC "-//W3C//DTD SVG 1.1//EN"
 "http://www.w3.org/Graphics/SVG/1.1/DTD/svg11.dtd">
<!-- Generated by graphviz version 2.40.1 (20161225.0304)
 -->
<!-- Title: G Pages: 1 -->
<svg width="446pt" height="265pt"
 viewBox="0.00 0.00 446.24 265.00" xmlns="http://www.w3.org/2000/svg" xmlns:xlink="http://www.w3.org/1999/xlink">
<g id="graph0" class="graph" transform="scale(1 1) rotate(0) translate(4 261)">
<title>G</title>
<polygon fill="#ffffff" stroke="transparent" points="-4,4 -4,-261 442.24,-261 442.24,4 -4,4"/>
<!-- A0 -->
<g id="node1" class="node">
<title>A0</title>
<ellipse fill="none" stroke="#000000" cx="122.952" cy="-246" rx="11" ry="11"/>
</g>
<!-- A1 -->
<g id="node2" class="node">
<title>A1</title>
<path fill="none" stroke="#000000" d="M185.0107,-187C185.0107,-187 60.8933,-187 60.8933,-187 54.8933,-187 48.8933,-181 48.8933,-175 48.8933,-175 48.8933,-163 48.8933,-163 48.8933,-157 54.8933,-151 60.8933,-151 60.8933,-151 185.0107,-151 185.0107,-151 191.0107,-151 197.0107,-157 197.0107,-163 197.0107,-163 197.0107,-175 197.0107,-175 197.0107,-181 191.0107,-187 185.0107,-187"/>
<text text-anchor="middle" x="122.952" y="-166" font-family="Helvetica,sans-Serif" font-size="10.00" fill="#000000">Mark Unexportable Circuits</text>
</g>
<!-- A0&#45;&gt;A1 -->
<g id="edge1" class="edge">
<title>A0&#45;&gt;A1</title>
<path fill="none" stroke="#000000" d="M122.952,-234.9678C122.952,-225.124 122.952,-210.2813 122.952,-197.1664"/>
<polygon fill="#000000" stroke="#000000" points="122.952,-187.1474 127.4521,-197.1473 122.952,-192.1474 122.9521,-197.1474 122.9521,-197.1474 122.9521,-197.1474 122.952,-192.1474 118.4521,-197.1474 122.952,-187.1474 122.952,-187.1474"/>
<text text-anchor="middle" x="152.1255" y="-208" font-family="Helvetica,sans-Serif" font-size="10.00" fill="#000000">digital design</text>
</g>
<!-- A2 -->
<g id="node3" class="node">
<title>A2</title>
<path fill="none" stroke="#000000" d="M89.856,-114C89.856,-114 12.048,-114 12.048,-114 6.048,-114 .048,-108 .048,-102 .048,-102 .048,-90 .048,-90 .048,-84 6.048,-78 12.048,-78 12.048,-78 89.856,-78 89.856,-78 95.856,-78 101.856,-84 101.856,-90 101.856,-90 101.856,-102 101.856,-102 101.856,-108 95.856,-114 89.856,-114"/>
<text text-anchor="middle" x="50.952" y="-93" font-family="Helvetica,sans-Serif" font-size="10.00" fill="#000000">Export to Verilog</text>
</g>
<!-- A1&#45;&gt;A2 -->
<g id="edge2" class="edge">
<title>A1&#45;&gt;A2</title>
<path fill="none" stroke="#000000" d="M105.1542,-150.9551C96.3272,-142.0054 85.5189,-131.047 75.8827,-121.2769"/>
<polygon fill="#000000" stroke="#000000" points="68.7945,-114.0904 79.0206,-118.0501 72.3056,-117.6502 75.8167,-121.2101 75.8167,-121.2101 75.8167,-121.2101 72.3056,-117.6502 72.6128,-124.37 68.7945,-114.0904 68.7945,-114.0904"/>
</g>
<!-- A3 -->
<g id="node4" class="node">
<title>A3</title>
<path fill="none" stroke="#000000" d="M259.848,-114C259.848,-114 132.056,-114 132.056,-114 126.056,-114 120.056,-108 120.056,-102 120.056,-102 120.056,-90 120.056,-90 120.056,-84 126.056,-78 132.056,-78 132.056,-78 259.848,-78 259.848,-78 265.848,-78 271.848,-84 271.848,-90 271.848,-90 271.848,-102 271.848,-102 271.848,-108 265.848,-114 259.848,-114"/>
<text text-anchor="middle" x="195.952" y="-93" font-family="Helvetica,sans-Serif" font-size="10.00" fill="#000000">Write Verilog Replacements</text>
</g>
<!-- A1&#45;&gt;A3 -->
<g id="edge3" class="edge">
<title>A1&#45;&gt;A3</title>
<path fill="none" stroke="#000000" d="M140.9969,-150.9551C149.9466,-142.0054 160.905,-131.047 170.6751,-121.2769"/>
<polygon fill="#000000" stroke="#000000" points="177.8616,-114.0904 173.9725,-124.3434 174.3261,-117.6259 170.7905,-121.1615 170.7905,-121.1615 170.7905,-121.1615 174.3261,-117.6259 167.6086,-117.9795 177.8616,-114.0904 177.8616,-114.0904"/>
</g>
<!-- A4 -->
<g id="node5" class="node">
<title>A4</title>
<ellipse fill="none" stroke="#000000" cx="195.952" cy="-15" rx="11" ry="11"/>
<ellipse fill="none" stroke="#000000" cx="195.952" cy="-15" rx="15" ry="15"/>
</g>
<!-- A2&#45;&gt;A4 -->
<g id="edge5" class="edge">
<title>A2&#45;&gt;A4</title>
<path fill="none" stroke="#000000" d="M83.4928,-77.822C111.0614,-62.4216 149.8404,-40.7589 173.9068,-27.3149"/>
<polygon fill="#000000" stroke="#000000" points="182.6525,-22.4294 176.1169,-31.2349 178.2874,-24.8679 173.9223,-27.3063 173.9223,-27.3063 173.9223,-27.3063 178.2874,-24.8679 171.7276,-23.3777 182.6525,-22.4294 182.6525,-22.4294"/>
<text text-anchor="middle" x="151.674" y="-51" font-family="Helvetica,sans-Serif" font-size="10.00" fill="#000000">verilog</text>
</g>
<!-- A3&#45;&gt;A4 -->
<g id="edge4" class="edge">
<title>A3&#45;&gt;A4</title>
<path fill="none" stroke="#000000" d="M195.952,-77.6198C195.952,-66.6129 195.952,-52.4617 195.952,-40.3973"/>
<polygon fill="#000000" stroke="#000000" points="195.952,-30.0545 200.4521,-40.0545 195.952,-35.0545 195.9521,-40.0545 195.9521,-40.0545 195.9521,-40.0545 195.952,-35.0545 191.4521,-40.0546 195.952,-30.0545 195.952,-30.0545"/>
<text text-anchor="middle" x="210.674" y="-51" font-family="Helvetica,sans-Serif" font-size="10.00" fill="#000000">verilog</text>
</g>
<!-- A5 -->
<g id="node6" class="node">
<title>A5</title>
<path fill="none" stroke="#000000" d="M426.0286,-114C426.0286,-114 301.8754,-114 301.8754,-114 295.8754,-114 289.8754,-108 289.8754,-102 289.8754,-102 289.8754,-90 289.8754,-90 289.8754,-84 295.8754,-78 301.8754,-78 301.8754,-78 426.0286,-78 426.0286,-78 432.0286,-78 438.0286,-84 438.0286,-90 438.0286,-90 438.0286,-102 438.0286,-102 438.0286,-108 432.0286,-114 426.0286,-114"/>
<text text-anchor="middle" x="363.952" y="-93" font-family="Helvetica,sans-Serif" font-size="10.00" fill="#000000">Make PLL config with icepll</text>
</g>
<!-- A5&#45;&gt;A4 -->
<g id="edge6" class="edge">
<title>A5&#45;&gt;A4</title>
<path fill="none" stroke="#000000" d="M326.2495,-77.822C293.336,-61.953 246.6315,-39.4347 218.9967,-26.1108"/>
<polygon fill="#000000" stroke="#000000" points="209.7392,-21.6474 220.7012,-21.937 214.243,-23.8189 218.7469,-25.9904 218.7469,-25.9904 218.7469,-25.9904 214.243,-23.8189 216.7925,-30.0439 209.7392,-21.6474 209.7392,-21.6474"/>
<text text-anchor="middle" x="299.674" y="-51" font-family="Helvetica,sans-Serif" font-size="10.00" fill="#000000">verilog</text>
</g>
</g>
</svg>
