<?xml version="1.0" encoding="UTF-8" standalone="no"?>
<!-- Created with Digital by H.Neemann -->
<!-- created: Sat Jun 12 05:40:13 PDT 2021 -->

<svg
   xmlns:svg="http://www.w3.org/2000/svg"
   xmlns="http://www.w3.org/2000/svg"
   width="166.05mm"
   height="86.25mm"
   viewBox="248 -238 1107 575">
<g stroke-linecap="square">
<path d="M 580,0 L 620,0" stroke="#000000" stroke-width="4.0" fill="none"/>
<path d="M 380,160 L 840,160 L 840,40 L 980,40" stroke="#000000" stroke-width="4.0" fill="none"/>
<path d="M 380,320 L 940,320 L 940,140 L 980,140" stroke="#000000" stroke-width="4.0" fill="none"/>
<path d="M 760,-100 L 980,-100" stroke="#000000" stroke-width="4.0" fill="none"/>
<path d="M 600,-100 L 620,-100" stroke="#000000" stroke-width="4.0" fill="none"/>
<path d="M 1120,-100 L 1200,-100" stroke="#000000" stroke-width="4.0" fill="none"/>
<path d="M 1220,-100 L 1260,-100" stroke="#000000" stroke-width="4.0" fill="none"/>
<path d="M 380,100 L 420,100 L 420,60 L 620,60" stroke="#000000" stroke-width="4.0" fill="none"/>
<path d="M 420,100 L 420,260 L 900,260 L 900,100 L 980,100" stroke="#000000" stroke-width="4.0" fill="none"/>
<path d="M 760,-40 L 980,-40" stroke="#000000" stroke-width="4.0" fill="none"/>
<path d="M 420,-60 L 420,-40 L 620,-40" stroke="#000000" stroke-width="4.0" fill="none"/>
<path d="M 1180,-40 L 1200,-40" stroke="#000000" stroke-width="4.0" fill="none"/>
<path d="M 540,-200 L 560,-200 L 560,-60 L 620,-60" stroke="#000000" stroke-width="4.0" fill="none"/>
<path d="M 580,40 L 620,40" stroke="#000000" stroke-width="4.0" fill="none"/>
<path d="M 380,200 L 860,200 L 860,60 L 980,60" stroke="#000000" stroke-width="4.0" fill="none"/>
<path d="M 480,-20 L 480,140 L 820,140 L 820,20 L 980,20" stroke="#000000" stroke-width="4.0" fill="none"/>
<path d="M 1120,-80 L 1160,-80 L 1200,-80" stroke="#000000" stroke-width="4.0" fill="none"/>
<path d="M 760,-80 L 980,-80" stroke="#000000" stroke-width="4.0" fill="none"/>
<path d="M 600,-80 L 620,-80" stroke="#000000" stroke-width="4.0" fill="none"/>
<path d="M 600,80 L 620,80" stroke="#000000" stroke-width="4.0" fill="none"/>
<path d="M 380,240 L 880,240 L 880,80 L 980,80" stroke="#000000" stroke-width="4.0" fill="none"/>
<path d="M 960,-20 L 980,-20" stroke="#000000" stroke-width="4.0" fill="none"/>
<path d="M 380,-20 L 480,-20 L 560,-20" stroke="#000000" stroke-width="4.0" fill="none"/>
<path d="M 580,-20 L 620,-20" stroke="#000000" stroke-width="4.0" fill="none"/>
<path d="M 460,-180 L 480,-180" stroke="#000000" stroke-width="4.0" fill="none"/>
<path d="M 600,20 L 620,20" stroke="#000000" stroke-width="4.0" fill="none"/>
<path d="M 500,40 L 500,120 L 800,120 L 800,0 L 980,0" stroke="#000000" stroke-width="4.0" fill="none"/>
<path d="M 380,280 L 920,280 L 920,120 L 980,120" stroke="#000000" stroke-width="4.0" fill="none"/>
<path d="M 760,-60 L 980,-60" stroke="#000000" stroke-width="4.0" fill="none"/>
<path d="M 380,-60 L 420,-60 L 420,-200 L 480,-200" stroke="#000000" stroke-width="4.0" fill="none"/>
<path d="M 1120,-60 L 1200,-60" stroke="#000000" stroke-width="4.0" fill="none"/>
<path d="M 380,60 L 400,60 L 400,40 L 500,40 L 560,40" stroke="#000000" stroke-width="4.0" fill="none"/>
<path d="M 720,-160 L 740,-160" stroke="#000000" stroke-width="4.0" fill="none"/>
<path d="M 1160,-80 L 1160,-120 L 440,-120 L 440,-160 L 460,-160" stroke="#000000" stroke-width="4.0" fill="none"/>
<path d="M 560,-20 L 570,-20 L 580,-20" stroke="#000000" stroke-width="4.0" fill="none"/>
<path d="M 580,0 L 570,0" stroke="#000000" stroke-width="4.0" fill="none"/>
<path d="M 560,40 L 570,40 L 580,40" stroke="#000000" stroke-width="4.0" fill="none"/>
<path d="M 1200,-100 L 1210,-100 L 1220,-100" stroke="#000000" stroke-width="4.0" fill="none"/>
<path d="M 1200,-80 L 1210,-80" stroke="#000000" stroke-width="4.0" fill="none"/>
<path d="M 1200,-60 L 1210,-60" stroke="#000000" stroke-width="4.0" fill="none"/>
<path d="M 1200,-40 L 1210,-40" stroke="#000000" stroke-width="4.0" fill="none"/>
<g>
<circle cx="420.0" cy="100.0" r="4.0" stroke="#000000" stroke-width="4.0" fill="#000000" />
<circle cx="500.0" cy="40.0" r="4.0" stroke="#000000" stroke-width="4.0" fill="#000000" />
<circle cx="1160.0" cy="-80.0" r="4.0" stroke="#000000" stroke-width="4.0" fill="#000000" />
<circle cx="480.0" cy="-20.0" r="4.0" stroke="#000000" stroke-width="4.0" fill="#000000" />
<circle cx="420.0" cy="-60.0" r="4.0" stroke="#000000" stroke-width="4.0" fill="#000000" />
</g>
<g>
<path d="M 349,-75 L 379,-75 L 379,-45 L 349,-45 Z" stroke="#000000" stroke-width="4.0" fill="none"/>
<circle cx="364.0" cy="-60.0" r="9.0" stroke="#000000" stroke-width="4.0" fill="none" />
<text text-anchor="end" x="335.0" y="-51.0" fill="#000000" style="font-size:24px"><tspan style="font-style:italic;">db<tspan style="font-size:80%;baseline-shift:sub;">ready</tspan></tspan></text>
<circle cx="380.0" cy="-60.0" r="2.0" stroke="#000000" stroke-width="4.0" fill="#000000" />
</g>
<g>
<path d="M 689,-175 L 719,-175 L 719,-145 L 689,-145 Z" stroke="#000000" stroke-width="4.0" fill="none"/>
<text text-anchor="end" x="675.0" y="-151.0" fill="#000000" style="font-size:24px">clock</text>
<path d="M 695,-155 L 700,-155 L 700,-165 L 705,-165 L 705,-155 L 710,-155 L 710,-165 L 715,-165" stroke="#000000" stroke-width="2.0" fill="none"/>
<circle cx="720.0" cy="-160.0" r="2.0" stroke="#000000" stroke-width="4.0" fill="#000000" />
</g>
<g>
<path d="M 349,-35 L 379,-35 L 379,-5 L 349,-5 Z" stroke="#000000" stroke-width="4.0" fill="none"/>
<circle cx="364.0" cy="-20.0" r="9.0" stroke="#000000" stroke-width="4.0" fill="none" />
<text text-anchor="end" x="335.0" y="-11.0" fill="#000000" style="font-size:24px"><tspan style="font-style:italic;">ctrl</tspan></text>
<circle cx="380.0" cy="-20.0" r="2.0" stroke="#000000" stroke-width="4.0" fill="#000000" />
</g>
<g>
<path d="M 621,-114 L 759,-114 L 759,94 L 621,94 Z" stroke="#ccccff" stroke-width="0.0" fill="#ccccff" fill-opacity="1.0"/>
<path d="M 621,-114 L 759,-114 L 759,94 L 621,94 Z" stroke="#000000" stroke-width="4.0" fill="none"/>
<text text-anchor="start" x="624.0" y="-93.25" fill="#000000" style="font-size:18px">data<tspan style="font-size:80%;baseline-shift:sub;">in</tspan></text>
<text text-anchor="start" x="624.0" y="-73.25" fill="#000000" style="font-size:18px">valid<tspan style="font-size:80%;baseline-shift:sub;">in</tspan></text>
<text text-anchor="start" x="624.0" y="-53.25" fill="#000000" style="font-size:18px">addr<tspan style="font-size:80%;baseline-shift:sub;">in</tspan></text>
<text text-anchor="start" x="624.0" y="-33.25" fill="#000000" style="font-size:18px">ready<tspan style="font-size:80%;baseline-shift:sub;">in</tspan></text>
<text text-anchor="start" x="624.0" y="-13.25" fill="#000000" style="font-size:18px">write</text>
<text text-anchor="start" x="624.0" y="6.75" fill="#000000" style="font-size:18px">en</text>
<path d="M 621,27 L 628,20 L 621,13" stroke="#000000" stroke-width="2.0" fill="none"/>
<text text-anchor="start" x="631.0" y="26.75" fill="#000000" style="font-size:18px">clock</text>
<text text-anchor="start" x="624.0" y="46.75" fill="#000000" style="font-size:18px">rd</text>
<text text-anchor="start" x="624.0" y="66.75" fill="#000000" style="font-size:18px">wrval</text>
<text text-anchor="start" x="624.0" y="86.75" fill="#000000" style="font-size:18px">sel</text>
<text text-anchor="end" x="756.0" y="-93.25" fill="#000000" style="font-size:18px">data<tspan style="font-size:80%;baseline-shift:sub;">out</tspan></text>
<text text-anchor="end" x="756.0" y="-73.25" fill="#000000" style="font-size:18px">valid<tspan style="font-size:80%;baseline-shift:sub;">out</tspan></text>
<text text-anchor="end" x="756.0" y="-53.25" fill="#000000" style="font-size:18px">addr<tspan style="font-size:80%;baseline-shift:sub;">out</tspan></text>
<text text-anchor="end" x="756.0" y="-33.25" fill="#000000" style="font-size:18px">ready<tspan style="font-size:80%;baseline-shift:sub;">out</tspan></text>
<text text-anchor="middle" x="690.0" y="111.5" fill="#000000" style="font-size:18px">Shadow Regs</text>
<circle cx="620.0" cy="-100.0" r="2.0" stroke="#000000" stroke-width="4.0" fill="#000000" />
<circle cx="620.0" cy="-80.0" r="2.0" stroke="#000000" stroke-width="4.0" fill="#000000" />
<circle cx="620.0" cy="-60.0" r="2.0" stroke="#000000" stroke-width="4.0" fill="#000000" />
<circle cx="620.0" cy="-40.0" r="2.0" stroke="#000000" stroke-width="4.0" fill="#000000" />
<circle cx="620.0" cy="-20.0" r="2.0" stroke="#000000" stroke-width="4.0" fill="#000000" />
<circle cx="620.0" cy="0.0" r="2.0" stroke="#000000" stroke-width="4.0" fill="#000000" />
<circle cx="620.0" cy="20.0" r="2.0" stroke="#000000" stroke-width="4.0" fill="#000000" />
<circle cx="620.0" cy="40.0" r="2.0" stroke="#000000" stroke-width="4.0" fill="#000000" />
<circle cx="620.0" cy="60.0" r="2.0" stroke="#000000" stroke-width="4.0" fill="#000000" />
<circle cx="620.0" cy="80.0" r="2.0" stroke="#000000" stroke-width="4.0" fill="#000000" />
<circle cx="760.0" cy="-100.0" r="2.0" stroke="#000000" stroke-width="4.0" fill="#000000" />
<circle cx="760.0" cy="-80.0" r="2.0" stroke="#000000" stroke-width="4.0" fill="#000000" />
<circle cx="760.0" cy="-60.0" r="2.0" stroke="#000000" stroke-width="4.0" fill="#000000" />
<circle cx="760.0" cy="-40.0" r="2.0" stroke="#000000" stroke-width="4.0" fill="#000000" />
</g>
<g>
<text text-anchor="end" x="558.0" y="-23.0" fill="#000000" style="font-size:12px">0-15</text>
<text text-anchor="start" x="582.0" y="-23.0" fill="#000000" style="font-size:12px">10</text>
<text text-anchor="start" x="582.0" y="-3.0" fill="#000000" style="font-size:12px">12</text>
<path d="M 568,-22 L 572,-22 L 572,2 L 568,2 Z" stroke="#000000" stroke-width="4.0" fill="#000000" fill-opacity="1.0"/>
<circle cx="560.0" cy="-20.0" r="2.0" stroke="#000000" stroke-width="4.0" fill="#000000" />
<circle cx="580.0" cy="-20.0" r="2.0" stroke="#000000" stroke-width="4.0" fill="#000000" />
<circle cx="580.0" cy="0.0" r="2.0" stroke="#000000" stroke-width="4.0" fill="#000000" />
</g>
<g>
<path d="M 349,45 L 379,45 L 379,75 L 349,75 Z" stroke="#000000" stroke-width="4.0" fill="none"/>
<circle cx="364.0" cy="60.0" r="9.0" stroke="#000000" stroke-width="4.0" fill="none" />
<text text-anchor="end" x="335.0" y="69.0" fill="#000000" style="font-size:24px"><tspan style="font-style:italic;">decode</tspan></text>
<circle cx="380.0" cy="60.0" r="2.0" stroke="#000000" stroke-width="4.0" fill="#000000" />
</g>
<g>
<text text-anchor="end" x="558.0" y="37.0" fill="#000000" style="font-size:12px">0-15</text>
<text text-anchor="start" x="582.0" y="37.0" fill="#000000" style="font-size:12px">0-3</text>
<path d="M 568,38 L 572,38 L 572,42 L 568,42 Z" stroke="#000000" stroke-width="4.0" fill="#000000" fill-opacity="1.0"/>
<circle cx="560.0" cy="40.0" r="2.0" stroke="#000000" stroke-width="4.0" fill="#000000" />
<circle cx="580.0" cy="40.0" r="2.0" stroke="#000000" stroke-width="4.0" fill="#000000" />
</g>
<g>
<path d="M 349,85 L 379,85 L 379,115 L 349,115 Z" stroke="#000000" stroke-width="4.0" fill="none"/>
<circle cx="364.0" cy="100.0" r="9.0" stroke="#000000" stroke-width="4.0" fill="none" />
<text text-anchor="end" x="335.0" y="109.0" fill="#000000" style="font-size:24px"><tspan style="font-style:italic;">wrval</tspan></text>
<circle cx="380.0" cy="100.0" r="2.0" stroke="#000000" stroke-width="4.0" fill="#000000" />
</g>
<g>
<text text-anchor="end" x="597.0" y="89.0" fill="#000000" style="font-size:24px">0</text>
<circle cx="600.0" cy="80.0" r="2.0" stroke="#000000" stroke-width="4.0" fill="#000000" />
</g>
<g>
<path d="M 981,-114 L 1119,-114 L 1119,154 L 981,154 Z" stroke="#ccccff" stroke-width="0.0" fill="#ccccff" fill-opacity="1.0"/>
<path d="M 981,-114 L 1119,-114 L 1119,154 L 981,154 Z" stroke="#000000" stroke-width="4.0" fill="none"/>
<text text-anchor="start" x="984.0" y="-93.25" fill="#000000" style="font-size:18px">data<tspan style="font-size:80%;baseline-shift:sub;">in</tspan></text>
<text text-anchor="start" x="984.0" y="-73.25" fill="#000000" style="font-size:18px">valid<tspan style="font-size:80%;baseline-shift:sub;">in</tspan></text>
<text text-anchor="start" x="984.0" y="-53.25" fill="#000000" style="font-size:18px">addr<tspan style="font-size:80%;baseline-shift:sub;">in</tspan></text>
<text text-anchor="start" x="984.0" y="-33.25" fill="#000000" style="font-size:18px">ready<tspan style="font-size:80%;baseline-shift:sub;">in</tspan></text>
<text text-anchor="start" x="984.0" y="-13.25" fill="#000000" style="font-size:18px">sel</text>
<text text-anchor="start" x="984.0" y="6.75" fill="#000000" style="font-size:18px">in<tspan style="font-size:80%;baseline-shift:sub;">0</tspan></text>
<text text-anchor="start" x="984.0" y="26.75" fill="#000000" style="font-size:18px">in<tspan style="font-size:80%;baseline-shift:sub;">1</tspan></text>
<text text-anchor="start" x="984.0" y="46.75" fill="#000000" style="font-size:18px">in<tspan style="font-size:80%;baseline-shift:sub;">2</tspan></text>
<text text-anchor="start" x="984.0" y="66.75" fill="#000000" style="font-size:18px">in<tspan style="font-size:80%;baseline-shift:sub;">3</tspan></text>
<text text-anchor="start" x="984.0" y="86.75" fill="#000000" style="font-size:18px">in<tspan style="font-size:80%;baseline-shift:sub;">4</tspan></text>
<text text-anchor="start" x="984.0" y="106.75" fill="#000000" style="font-size:18px">in<tspan style="font-size:80%;baseline-shift:sub;">5</tspan></text>
<text text-anchor="start" x="984.0" y="126.75" fill="#000000" style="font-size:18px">in<tspan style="font-size:80%;baseline-shift:sub;">6</tspan></text>
<text text-anchor="start" x="984.0" y="146.75" fill="#000000" style="font-size:18px">in<tspan style="font-size:80%;baseline-shift:sub;">7</tspan></text>
<text text-anchor="end" x="1116.0" y="-93.25" fill="#000000" style="font-size:18px">data<tspan style="font-size:80%;baseline-shift:sub;">out</tspan></text>
<text text-anchor="end" x="1116.0" y="-73.25" fill="#000000" style="font-size:18px">valid<tspan style="font-size:80%;baseline-shift:sub;">out</tspan></text>
<text text-anchor="end" x="1116.0" y="-53.25" fill="#000000" style="font-size:18px">addr<tspan style="font-size:80%;baseline-shift:sub;">out</tspan></text>
<text text-anchor="end" x="1116.0" y="-33.25" fill="#000000" style="font-size:18px">ready<tspan style="font-size:80%;baseline-shift:sub;">out</tspan></text>
<text text-anchor="middle" x="1050.0" y="171.5" fill="#000000" style="font-size:18px">Debug Mux</text>
<circle cx="980.0" cy="-100.0" r="2.0" stroke="#000000" stroke-width="4.0" fill="#000000" />
<circle cx="980.0" cy="-80.0" r="2.0" stroke="#000000" stroke-width="4.0" fill="#000000" />
<circle cx="980.0" cy="-60.0" r="2.0" stroke="#000000" stroke-width="4.0" fill="#000000" />
<circle cx="980.0" cy="-40.0" r="2.0" stroke="#000000" stroke-width="4.0" fill="#000000" />
<circle cx="980.0" cy="-20.0" r="2.0" stroke="#000000" stroke-width="4.0" fill="#000000" />
<circle cx="980.0" cy="0.0" r="2.0" stroke="#000000" stroke-width="4.0" fill="#000000" />
<circle cx="980.0" cy="20.0" r="2.0" stroke="#000000" stroke-width="4.0" fill="#000000" />
<circle cx="980.0" cy="40.0" r="2.0" stroke="#000000" stroke-width="4.0" fill="#000000" />
<circle cx="980.0" cy="60.0" r="2.0" stroke="#000000" stroke-width="4.0" fill="#000000" />
<circle cx="980.0" cy="80.0" r="2.0" stroke="#000000" stroke-width="4.0" fill="#000000" />
<circle cx="980.0" cy="100.0" r="2.0" stroke="#000000" stroke-width="4.0" fill="#000000" />
<circle cx="980.0" cy="120.0" r="2.0" stroke="#000000" stroke-width="4.0" fill="#000000" />
<circle cx="980.0" cy="140.0" r="2.0" stroke="#000000" stroke-width="4.0" fill="#000000" />
<circle cx="1120.0" cy="-100.0" r="2.0" stroke="#000000" stroke-width="4.0" fill="#000000" />
<circle cx="1120.0" cy="-80.0" r="2.0" stroke="#000000" stroke-width="4.0" fill="#000000" />
<circle cx="1120.0" cy="-60.0" r="2.0" stroke="#000000" stroke-width="4.0" fill="#000000" />
<circle cx="1120.0" cy="-40.0" r="2.0" stroke="#000000" stroke-width="4.0" fill="#000000" />
</g>
<g>
<text text-anchor="end" x="597.0" y="-71.0" fill="#000000" style="font-size:24px">0</text>
<circle cx="600.0" cy="-80.0" r="2.0" stroke="#000000" stroke-width="4.0" fill="#000000" />
</g>
<g>
<text text-anchor="end" x="597.0" y="-91.0" fill="#000000" style="font-size:24px">0</text>
<circle cx="600.0" cy="-100.0" r="2.0" stroke="#000000" stroke-width="4.0" fill="#000000" />
</g>
<g>
<text text-anchor="end" x="957.0" y="-11.0" fill="#000000" style="font-size:24px">0x10</text>
<circle cx="960.0" cy="-20.0" r="2.0" stroke="#000000" stroke-width="4.0" fill="#000000" />
</g>
<g>
<path d="M 349,225 L 379,225 L 379,255 L 349,255 Z" stroke="#000000" stroke-width="4.0" fill="none"/>
<circle cx="364.0" cy="240.0" r="9.0" stroke="#000000" stroke-width="4.0" fill="none" />
<text text-anchor="end" x="335.0" y="249.0" fill="#000000" style="font-size:24px"><tspan style="font-style:italic;">result</tspan></text>
<circle cx="380.0" cy="240.0" r="2.0" stroke="#000000" stroke-width="4.0" fill="#000000" />
</g>
<g>
<path d="M 349,145 L 379,145 L 379,175 L 349,175 Z" stroke="#000000" stroke-width="4.0" fill="none"/>
<circle cx="364.0" cy="160.0" r="9.0" stroke="#000000" stroke-width="4.0" fill="none" />
<text text-anchor="end" x="335.0" y="169.0" fill="#000000" style="font-size:24px"><tspan style="font-style:italic;">L</tspan></text>
<circle cx="380.0" cy="160.0" r="2.0" stroke="#000000" stroke-width="4.0" fill="#000000" />
</g>
<g>
<path d="M 349,185 L 379,185 L 379,215 L 349,215 Z" stroke="#000000" stroke-width="4.0" fill="none"/>
<circle cx="364.0" cy="200.0" r="9.0" stroke="#000000" stroke-width="4.0" fill="none" />
<text text-anchor="end" x="335.0" y="209.0" fill="#000000" style="font-size:24px"><tspan style="font-style:italic;">R</tspan></text>
<circle cx="380.0" cy="200.0" r="2.0" stroke="#000000" stroke-width="4.0" fill="#000000" />
</g>
<g>
<path d="M 349,265 L 379,265 L 379,295 L 349,295 Z" stroke="#000000" stroke-width="4.0" fill="none"/>
<circle cx="364.0" cy="280.0" r="9.0" stroke="#000000" stroke-width="4.0" fill="none" />
<text text-anchor="end" x="335.0" y="289.0" fill="#000000" style="font-size:24px"><tspan style="font-style:italic;">imm</tspan></text>
<circle cx="380.0" cy="280.0" r="2.0" stroke="#000000" stroke-width="4.0" fill="#000000" />
</g>
<g>
<path d="M 349,305 L 379,305 L 379,335 L 349,335 Z" stroke="#000000" stroke-width="4.0" fill="none"/>
<circle cx="364.0" cy="320.0" r="9.0" stroke="#000000" stroke-width="4.0" fill="none" />
<text text-anchor="end" x="335.0" y="329.0" fill="#000000" style="font-size:24px"><tspan style="font-style:italic;">pc</tspan></text>
<circle cx="380.0" cy="320.0" r="2.0" stroke="#000000" stroke-width="4.0" fill="#000000" />
</g>
<g>
<text text-anchor="start" x="1180.0" y="38.0" fill="#000000" style="font-size:24px">Memory Map:</text>
<text text-anchor="start" x="1180.0" y="68.0" fill="#000000" style="font-size:24px">00-0F: registers</text>
<text text-anchor="start" x="1180.0" y="98.0" fill="#000000" style="font-size:24px">10: decode</text>
<text text-anchor="start" x="1180.0" y="128.0" fill="#000000" style="font-size:24px">11: ctrl</text>
<text text-anchor="start" x="1180.0" y="158.0" fill="#000000" style="font-size:24px">12: L</text>
<text text-anchor="start" x="1180.0" y="188.0" fill="#000000" style="font-size:24px">13: R</text>
<text text-anchor="start" x="1180.0" y="218.0" fill="#000000" style="font-size:24px">14: result</text>
<text text-anchor="start" x="1180.0" y="248.0" fill="#000000" style="font-size:24px">15: wrval</text>
<text text-anchor="start" x="1180.0" y="278.0" fill="#000000" style="font-size:24px">16: imm</text>
<text text-anchor="start" x="1180.0" y="308.0" fill="#000000" style="font-size:24px">17: pc</text>
</g>
<g>
<path d="M 481,-210 L 539,-210 L 539,-150 L 481,-150 Z" stroke="#000000" stroke-width="4.0" fill="none"/>
<text text-anchor="middle" x="510.0" y="-218.0" fill="#000000" style="font-size:24px">Addr Enumerator</text>
<text text-anchor="start" x="484.0" y="-193.25" fill="#000000" style="font-size:18px">en</text>
<path d="M 481,-173 L 488,-180 L 481,-187" stroke="#000000" stroke-width="2.0" fill="none"/>
<text text-anchor="start" x="491.0" y="-173.25" fill="#000000" style="font-size:18px">C</text>
<text text-anchor="start" x="484.0" y="-153.25" fill="#000000" style="font-size:18px">clr</text>
<text text-anchor="end" x="536.0" y="-193.25" fill="#000000" style="font-size:18px">out</text>
<text text-anchor="end" x="536.0" y="-173.25" fill="#000000" style="font-size:18px">ovf</text>
<text text-anchor="middle" x="510.0" y="-132.5" fill="#000000" style="font-size:18px">Counter</text>
<circle cx="470.0" cy="-160.0" r="8.0" stroke="#000000" stroke-width="4.0" fill="none" />
<circle cx="480.0" cy="-200.0" r="2.0" stroke="#000000" stroke-width="4.0" fill="#000000" />
<circle cx="480.0" cy="-180.0" r="2.0" stroke="#000000" stroke-width="4.0" fill="#000000" />
<circle cx="460.0" cy="-160.0" r="2.0" stroke="#000000" stroke-width="4.0" fill="#000000" />
<circle cx="540.0" cy="-200.0" r="2.0" stroke="#000000" stroke-width="4.0" fill="#000000" />
<circle cx="540.0" cy="-180.0" r="2.0" stroke="#000000" stroke-width="4.0" fill="#000000" />
</g>
<g>
<circle cx="1276.0" cy="-100.0" r="9.0" stroke="#000000" stroke-width="4.0" fill="none" />
<circle cx="1276.0" cy="-100.0" r="15.0" stroke="#000000" stroke-width="4.0" fill="none" />
<text text-anchor="start" x="1305.0" y="-91.0" fill="#000000" style="font-size:24px"><tspan style="font-style:italic;">db</tspan></text>
<circle cx="1260.0" cy="-100.0" r="2.0" stroke="#000000" stroke-width="4.0" fill="#000000" />
</g>
<g>
<text text-anchor="end" x="1198.0" y="-103.0" fill="#000000" style="font-size:12px">0-15</text>
<text text-anchor="end" x="1198.0" y="-83.0" fill="#000000" style="font-size:12px">16</text>
<text text-anchor="end" x="1198.0" y="-63.0" fill="#000000" style="font-size:12px">17-24</text>
<text text-anchor="end" x="1198.0" y="-43.0" fill="#000000" style="font-size:12px">25</text>
<text text-anchor="start" x="1222.0" y="-103.0" fill="#000000" style="font-size:12px">0-25</text>
<path d="M 1208,-102 L 1212,-102 L 1212,-38 L 1208,-38 Z" stroke="#000000" stroke-width="4.0" fill="#000000" fill-opacity="1.0"/>
<circle cx="1200.0" cy="-100.0" r="2.0" stroke="#000000" stroke-width="4.0" fill="#000000" />
<circle cx="1200.0" cy="-80.0" r="2.0" stroke="#000000" stroke-width="4.0" fill="#000000" />
<circle cx="1200.0" cy="-60.0" r="2.0" stroke="#000000" stroke-width="4.0" fill="#000000" />
<circle cx="1200.0" cy="-40.0" r="2.0" stroke="#000000" stroke-width="4.0" fill="#000000" />
<circle cx="1220.0" cy="-100.0" r="2.0" stroke="#000000" stroke-width="4.0" fill="#000000" />
</g>
<g>
<path d="M 740,-160 L 754,-152 L 754,-168 Z" stroke="#000000" stroke-width="4.0" fill="none"/>
<text text-anchor="start" x="759.0" y="-153.25" fill="#000000" style="font-size:18px">C</text>
<circle cx="740.0" cy="-160.0" r="2.0" stroke="#000000" stroke-width="4.0" fill="#000000" />
</g>
<g>
<path d="M 600,20 L 586,12 L 586,28 Z" stroke="#000000" stroke-width="4.0" fill="none"/>
<text text-anchor="end" x="581.0" y="26.75" fill="#000000" style="font-size:18px">C</text>
<circle cx="600.0" cy="20.0" r="2.0" stroke="#000000" stroke-width="4.0" fill="#000000" />
</g>
<g>
<path d="M 460,-180 L 446,-188 L 446,-172 Z" stroke="#000000" stroke-width="4.0" fill="none"/>
<text text-anchor="end" x="441.0" y="-173.25" fill="#000000" style="font-size:18px">C</text>
<circle cx="460.0" cy="-180.0" r="2.0" stroke="#000000" stroke-width="4.0" fill="#000000" />
</g>
<g>
<path d="M 1180,-40 L 1166,-48 L 1166,-32 Z" stroke="#000000" stroke-width="4.0" fill="none"/>
<text text-anchor="end" x="1161.0" y="-33.25" fill="#000000" style="font-size:18px">C</text>
<circle cx="1180.0" cy="-40.0" r="2.0" stroke="#000000" stroke-width="4.0" fill="#000000" />
</g>
</g>
</svg>