<?xml version="1.0" encoding="UTF-8" standalone="no"?>
<!-- Created with Digital by H.Neemann -->
<!-- created: Sat Jun 12 05:52:57 PDT 2021 -->

<svg
   xmlns:svg="http://www.w3.org/2000/svg"
   xmlns="http://www.w3.org/2000/svg"
   width="90.6mm"
   height="71.1mm"
   viewBox="355 3 604 474">
<g stroke-linecap="square">
<path d="M 620,160 L 640,160" stroke="#000000" stroke-width="4.0" fill="none"/>
<path d="M 620,100 L 640,100" stroke="#000000" stroke-width="4.0" fill="none"/>
<path d="M 480,420 L 720,420 L 724,420" stroke="#000000" stroke-width="4.0" fill="none"/>
<path d="M 620,200 L 640,200" stroke="#000000" stroke-width="4.0" fill="none"/>
<path d="M 680,140 L 760,140" stroke="#000000" stroke-width="4.0" fill="none"/>
<path d="M 620,140 L 640,140" stroke="#000000" stroke-width="4.0" fill="none"/>
<path d="M 540,300 L 600,300 L 600,320 L 620,320" stroke="#000000" stroke-width="4.0" fill="none"/>
<path d="M 480,460 L 820,460" stroke="#000000" stroke-width="4.0" fill="none"/>
<path d="M 800,400 L 820,400" stroke="#000000" stroke-width="4.0" fill="none"/>
<path d="M 500,280 L 500,240 L 520,240" stroke="#000000" stroke-width="4.0" fill="none"/>
<path d="M 620,80 L 640,80" stroke="#000000" stroke-width="4.0" fill="none"/>
<path d="M 480,340 L 540,340" stroke="#000000" stroke-width="4.0" fill="none"/>
<path d="M 680,340 L 700,340 L 780,340 L 780,140" stroke="#000000" stroke-width="4.0" fill="none"/>
<path d="M 560,340 L 620,340" stroke="#000000" stroke-width="4.0" fill="none"/>
<path d="M 620,180 L 640,180" stroke="#000000" stroke-width="4.0" fill="none"/>
<path d="M 720,20 L 740,20 L 740,100 L 760,100" stroke="#000000" stroke-width="4.0" fill="none"/>
<path d="M 800,120 L 820,120" stroke="#000000" stroke-width="4.0" fill="none"/>
<path d="M 620,120 L 640,120" stroke="#000000" stroke-width="4.0" fill="none"/>
<path d="M 540,280 L 660,280 L 660,220" stroke="#000000" stroke-width="4.0" fill="none"/>
<path d="M 480,280 L 500,280 L 520,280" stroke="#000000" stroke-width="4.0" fill="none"/>
<path d="M 620,60 L 640,60" stroke="#000000" stroke-width="4.0" fill="none"/>
<path d="M 700,340 L 700,380 L 720,380 L 724,380" stroke="#000000" stroke-width="4.0" fill="none"/>
<path d="M 520,280 L 530,280 L 540,280" stroke="#000000" stroke-width="4.0" fill="none"/>
<path d="M 540,300 L 530,300" stroke="#000000" stroke-width="4.0" fill="none"/>
<path d="M 540,340 L 550,340 L 560,340" stroke="#000000" stroke-width="4.0" fill="none"/>
<g>
<circle cx="700.0" cy="340.0" r="4.0" stroke="#000000" stroke-width="4.0" fill="#000000" />
<circle cx="500.0" cy="280.0" r="4.0" stroke="#000000" stroke-width="4.0" fill="#000000" />
</g>
<g>
<path d="M 689,5 L 719,5 L 719,35 L 689,35 Z" stroke="#000000" stroke-width="4.0" fill="none"/>
<circle cx="704.0" cy="20.0" r="9.0" stroke="#000000" stroke-width="4.0" fill="none" />
<text text-anchor="end" x="675.0" y="29.0" fill="#000000" style="font-size:24px"><tspan style="font-style:italic;">data<tspan style="font-size:80%;baseline-shift:sub;">in</tspan></tspan></text>
<circle cx="720.0" cy="20.0" r="2.0" stroke="#000000" stroke-width="4.0" fill="#000000" />
</g>
<g>
<path d="M 449,405 L 479,405 L 479,435 L 449,435 Z" stroke="#000000" stroke-width="4.0" fill="none"/>
<circle cx="464.0" cy="420.0" r="9.0" stroke="#000000" stroke-width="4.0" fill="none" />
<text text-anchor="end" x="435.0" y="429.0" fill="#000000" style="font-size:24px"><tspan style="font-style:italic;">valid<tspan style="font-size:80%;baseline-shift:sub;">in</tspan></tspan></text>
<circle cx="480.0" cy="420.0" r="2.0" stroke="#000000" stroke-width="4.0" fill="#000000" />
</g>
<g>
<path d="M 449,265 L 479,265 L 479,295 L 449,295 Z" stroke="#000000" stroke-width="4.0" fill="none"/>
<circle cx="464.0" cy="280.0" r="9.0" stroke="#000000" stroke-width="4.0" fill="none" />
<text text-anchor="end" x="435.0" y="289.0" fill="#000000" style="font-size:24px"><tspan style="font-style:italic;">addr<tspan style="font-size:80%;baseline-shift:sub;">in</tspan></tspan></text>
<circle cx="480.0" cy="280.0" r="2.0" stroke="#000000" stroke-width="4.0" fill="#000000" />
</g>
<g>
<path d="M 449,445 L 479,445 L 479,475 L 449,475 Z" stroke="#000000" stroke-width="4.0" fill="none"/>
<circle cx="464.0" cy="460.0" r="9.0" stroke="#000000" stroke-width="4.0" fill="none" />
<text text-anchor="end" x="435.0" y="469.0" fill="#000000" style="font-size:24px"><tspan style="font-style:italic;">ready<tspan style="font-size:80%;baseline-shift:sub;">in</tspan></tspan></text>
<circle cx="480.0" cy="460.0" r="2.0" stroke="#000000" stroke-width="4.0" fill="#000000" />
</g>
<g>
<circle cx="836.0" cy="120.0" r="9.0" stroke="#000000" stroke-width="4.0" fill="none" />
<circle cx="836.0" cy="120.0" r="15.0" stroke="#000000" stroke-width="4.0" fill="none" />
<text text-anchor="start" x="865.0" y="129.0" fill="#000000" style="font-size:24px"><tspan style="font-style:italic;">data<tspan style="font-size:80%;baseline-shift:sub;">out</tspan></tspan></text>
<circle cx="820.0" cy="120.0" r="2.0" stroke="#000000" stroke-width="4.0" fill="#000000" />
</g>
<g>
<path d="M 621,310 L 679,310 L 679,370 L 621,370 Z" stroke="#000000" stroke-width="4.0" fill="none"/>
<text text-anchor="middle" x="650.0" y="302.0" fill="#000000" style="font-size:24px">active?</text>
<text text-anchor="start" x="624.0" y="326.75" fill="#000000" style="font-size:18px">a</text>
<text text-anchor="start" x="624.0" y="346.75" fill="#000000" style="font-size:18px">b</text>
<text text-anchor="end" x="676.0" y="326.75" fill="#000000" style="font-size:18px">&gt;</text>
<text text-anchor="end" x="676.0" y="346.75" fill="#000000" style="font-size:18px">=</text>
<text text-anchor="end" x="676.0" y="366.75" fill="#000000" style="font-size:18px">&lt;</text>
<circle cx="620.0" cy="320.0" r="2.0" stroke="#000000" stroke-width="4.0" fill="#000000" />
<circle cx="620.0" cy="340.0" r="2.0" stroke="#000000" stroke-width="4.0" fill="#000000" />
<circle cx="680.0" cy="320.0" r="2.0" stroke="#000000" stroke-width="4.0" fill="#000000" />
<circle cx="680.0" cy="340.0" r="2.0" stroke="#000000" stroke-width="4.0" fill="#000000" />
<circle cx="680.0" cy="360.0" r="2.0" stroke="#000000" stroke-width="4.0" fill="#000000" />
</g>
<g>
<text text-anchor="end" x="518.0" y="277.0" fill="#000000" style="font-size:12px">0-7</text>
<text text-anchor="start" x="542.0" y="277.0" fill="#000000" style="font-size:12px">0-2</text>
<text text-anchor="start" x="542.0" y="297.0" fill="#000000" style="font-size:12px">3-7</text>
<path d="M 528,278 L 532,278 L 532,302 L 528,302 Z" stroke="#000000" stroke-width="4.0" fill="#000000" fill-opacity="1.0"/>
<circle cx="520.0" cy="280.0" r="2.0" stroke="#000000" stroke-width="4.0" fill="#000000" />
<circle cx="540.0" cy="280.0" r="2.0" stroke="#000000" stroke-width="4.0" fill="#000000" />
<circle cx="540.0" cy="300.0" r="2.0" stroke="#000000" stroke-width="4.0" fill="#000000" />
</g>
<g>
<path d="M 761,96 L 799,105 L 799,135 L 761,144 Z" stroke="#000000" stroke-width="4.0" fill="none"/>
<text text-anchor="start" x="763.0" y="115.5" fill="#000000" style="font-size:18px">0</text>
<circle cx="780.0" cy="140.0" r="2.0" stroke="#000000" stroke-width="4.0" fill="#000000" />
<circle cx="760.0" cy="100.0" r="2.0" stroke="#000000" stroke-width="4.0" fill="#000000" />
<circle cx="760.0" cy="140.0" r="2.0" stroke="#000000" stroke-width="4.0" fill="#000000" />
<circle cx="800.0" cy="120.0" r="2.0" stroke="#000000" stroke-width="4.0" fill="#000000" />
</g>
<g>
<circle cx="836.0" cy="400.0" r="9.0" stroke="#000000" stroke-width="4.0" fill="none" />
<circle cx="836.0" cy="400.0" r="15.0" stroke="#000000" stroke-width="4.0" fill="none" />
<text text-anchor="start" x="865.0" y="409.0" fill="#000000" style="font-size:24px"><tspan style="font-style:italic;">valid<tspan style="font-size:80%;baseline-shift:sub;">out</tspan></tspan></text>
<circle cx="820.0" cy="400.0" r="2.0" stroke="#000000" stroke-width="4.0" fill="#000000" />
</g>
<g>
<circle cx="536.0" cy="240.0" r="9.0" stroke="#000000" stroke-width="4.0" fill="none" />
<circle cx="536.0" cy="240.0" r="15.0" stroke="#000000" stroke-width="4.0" fill="none" />
<text text-anchor="start" x="565.0" y="249.0" fill="#000000" style="font-size:24px"><tspan style="font-style:italic;">addr<tspan style="font-size:80%;baseline-shift:sub;">out</tspan></tspan></text>
<circle cx="520.0" cy="240.0" r="2.0" stroke="#000000" stroke-width="4.0" fill="#000000" />
</g>
<g>
<path d="M 449,325 L 479,325 L 479,355 L 449,355 Z" stroke="#000000" stroke-width="4.0" fill="none"/>
<circle cx="464.0" cy="340.0" r="9.0" stroke="#000000" stroke-width="4.0" fill="none" />
<text text-anchor="end" x="435.0" y="349.0" fill="#000000" style="font-size:24px"><tspan style="font-style:italic;">sel</tspan></text>
<circle cx="480.0" cy="340.0" r="2.0" stroke="#000000" stroke-width="4.0" fill="#000000" />
</g>
<g>
<path d="M 750,430 L 720,430 C 730,414 730,386 720,370 L 740,370 C 770,370 790,380 800,400 C 790,420 770,430 750,430 Z" stroke="#000000" stroke-width="4.0" fill="none"/>
<circle cx="720.0" cy="380.0" r="2.0" stroke="#000000" stroke-width="4.0" fill="#000000" />
<circle cx="720.0" cy="420.0" r="2.0" stroke="#000000" stroke-width="4.0" fill="#000000" />
<circle cx="800.0" cy="400.0" r="2.0" stroke="#000000" stroke-width="4.0" fill="#000000" />
</g>
<g>
<circle cx="836.0" cy="460.0" r="9.0" stroke="#000000" stroke-width="4.0" fill="none" />
<circle cx="836.0" cy="460.0" r="15.0" stroke="#000000" stroke-width="4.0" fill="none" />
<text text-anchor="start" x="865.0" y="469.0" fill="#000000" style="font-size:24px"><tspan style="font-style:italic;">ready<tspan style="font-size:80%;baseline-shift:sub;">out</tspan></tspan></text>
<circle cx="820.0" cy="460.0" r="2.0" stroke="#000000" stroke-width="4.0" fill="#000000" />
</g>
<g>
<path d="M 641,56 L 679,65 L 679,215 L 641,224 Z" stroke="#000000" stroke-width="4.0" fill="none"/>
<text text-anchor="start" x="643.0" y="75.5" fill="#000000" style="font-size:18px">0</text>
<circle cx="660.0" cy="220.0" r="2.0" stroke="#000000" stroke-width="4.0" fill="#000000" />
<circle cx="640.0" cy="60.0" r="2.0" stroke="#000000" stroke-width="4.0" fill="#000000" />
<circle cx="640.0" cy="80.0" r="2.0" stroke="#000000" stroke-width="4.0" fill="#000000" />
<circle cx="640.0" cy="100.0" r="2.0" stroke="#000000" stroke-width="4.0" fill="#000000" />
<circle cx="640.0" cy="120.0" r="2.0" stroke="#000000" stroke-width="4.0" fill="#000000" />
<circle cx="640.0" cy="140.0" r="2.0" stroke="#000000" stroke-width="4.0" fill="#000000" />
<circle cx="640.0" cy="160.0" r="2.0" stroke="#000000" stroke-width="4.0" fill="#000000" />
<circle cx="640.0" cy="180.0" r="2.0" stroke="#000000" stroke-width="4.0" fill="#000000" />
<circle cx="640.0" cy="200.0" r="2.0" stroke="#000000" stroke-width="4.0" fill="#000000" />
<circle cx="680.0" cy="140.0" r="2.0" stroke="#000000" stroke-width="4.0" fill="#000000" />
</g>
<g>
<path d="M 599,50 L 619,50 L 619,70 L 599,70 Z" stroke="#000000" stroke-width="4.0" fill="none"/>
<circle cx="609.0" cy="60.0" r="4.0" stroke="#000000" stroke-width="2.0" fill="none" />
<text text-anchor="end" x="590.0" y="69.0" fill="#000000" style="font-size:24px"><tspan style="font-style:italic;">in<tspan style="font-size:80%;baseline-shift:sub;">0</tspan></tspan></text>
<circle cx="620.0" cy="60.0" r="2.0" stroke="#000000" stroke-width="4.0" fill="#000000" />
</g>
<g>
<path d="M 599,70 L 619,70 L 619,90 L 599,90 Z" stroke="#000000" stroke-width="4.0" fill="none"/>
<circle cx="609.0" cy="80.0" r="4.0" stroke="#000000" stroke-width="2.0" fill="none" />
<text text-anchor="end" x="590.0" y="89.0" fill="#000000" style="font-size:24px"><tspan style="font-style:italic;">in<tspan style="font-size:80%;baseline-shift:sub;">1</tspan></tspan></text>
<circle cx="620.0" cy="80.0" r="2.0" stroke="#000000" stroke-width="4.0" fill="#000000" />
</g>
<g>
<path d="M 599,90 L 619,90 L 619,110 L 599,110 Z" stroke="#000000" stroke-width="4.0" fill="none"/>
<circle cx="609.0" cy="100.0" r="4.0" stroke="#000000" stroke-width="2.0" fill="none" />
<text text-anchor="end" x="590.0" y="109.0" fill="#000000" style="font-size:24px"><tspan style="font-style:italic;">in<tspan style="font-size:80%;baseline-shift:sub;">2</tspan></tspan></text>
<circle cx="620.0" cy="100.0" r="2.0" stroke="#000000" stroke-width="4.0" fill="#000000" />
</g>
<g>
<path d="M 599,110 L 619,110 L 619,130 L 599,130 Z" stroke="#000000" stroke-width="4.0" fill="none"/>
<circle cx="609.0" cy="120.0" r="4.0" stroke="#000000" stroke-width="2.0" fill="none" />
<text text-anchor="end" x="590.0" y="129.0" fill="#000000" style="font-size:24px"><tspan style="font-style:italic;">in<tspan style="font-size:80%;baseline-shift:sub;">3</tspan></tspan></text>
<circle cx="620.0" cy="120.0" r="2.0" stroke="#000000" stroke-width="4.0" fill="#000000" />
</g>
<g>
<path d="M 599,130 L 619,130 L 619,150 L 599,150 Z" stroke="#000000" stroke-width="4.0" fill="none"/>
<circle cx="609.0" cy="140.0" r="4.0" stroke="#000000" stroke-width="2.0" fill="none" />
<text text-anchor="end" x="590.0" y="149.0" fill="#000000" style="font-size:24px"><tspan style="font-style:italic;">in<tspan style="font-size:80%;baseline-shift:sub;">4</tspan></tspan></text>
<circle cx="620.0" cy="140.0" r="2.0" stroke="#000000" stroke-width="4.0" fill="#000000" />
</g>
<g>
<path d="M 599,150 L 619,150 L 619,170 L 599,170 Z" stroke="#000000" stroke-width="4.0" fill="none"/>
<circle cx="609.0" cy="160.0" r="4.0" stroke="#000000" stroke-width="2.0" fill="none" />
<text text-anchor="end" x="590.0" y="169.0" fill="#000000" style="font-size:24px"><tspan style="font-style:italic;">in<tspan style="font-size:80%;baseline-shift:sub;">5</tspan></tspan></text>
<circle cx="620.0" cy="160.0" r="2.0" stroke="#000000" stroke-width="4.0" fill="#000000" />
</g>
<g>
<path d="M 599,170 L 619,170 L 619,190 L 599,190 Z" stroke="#000000" stroke-width="4.0" fill="none"/>
<circle cx="609.0" cy="180.0" r="4.0" stroke="#000000" stroke-width="2.0" fill="none" />
<text text-anchor="end" x="590.0" y="189.0" fill="#000000" style="font-size:24px"><tspan style="font-style:italic;">in<tspan style="font-size:80%;baseline-shift:sub;">6</tspan></tspan></text>
<circle cx="620.0" cy="180.0" r="2.0" stroke="#000000" stroke-width="4.0" fill="#000000" />
</g>
<g>
<path d="M 599,190 L 619,190 L 619,210 L 599,210 Z" stroke="#000000" stroke-width="4.0" fill="none"/>
<circle cx="609.0" cy="200.0" r="4.0" stroke="#000000" stroke-width="2.0" fill="none" />
<text text-anchor="end" x="590.0" y="209.0" fill="#000000" style="font-size:24px"><tspan style="font-style:italic;">in<tspan style="font-size:80%;baseline-shift:sub;">7</tspan></tspan></text>
<circle cx="620.0" cy="200.0" r="2.0" stroke="#000000" stroke-width="4.0" fill="#000000" />
</g>
<g>
<text text-anchor="end" x="538.0" y="337.0" fill="#000000" style="font-size:12px">0-7</text>
<text text-anchor="start" x="562.0" y="337.0" fill="#000000" style="font-size:12px">3-7</text>
<path d="M 548,338 L 552,338 L 552,342 L 548,342 Z" stroke="#000000" stroke-width="4.0" fill="#000000" fill-opacity="1.0"/>
<circle cx="540.0" cy="340.0" r="2.0" stroke="#000000" stroke-width="4.0" fill="#000000" />
<circle cx="560.0" cy="340.0" r="2.0" stroke="#000000" stroke-width="4.0" fill="#000000" />
</g>
</g>
</svg>