<?xml version="1.0" encoding="UTF-8" standalone="no"?>
<!DOCTYPE svg PUBLIC "-//W3C//DTD SVG 1.1//EN"
 "http://www.w3.org/Graphics/SVG/1.1/DTD/svg11.dtd">
<!-- Generated by graphviz version 2.40.1 (20161225.0304)
 -->
<!-- Title: G Pages: 1 -->
<svg width="594pt" height="44pt"
 viewBox="0.00 0.00 593.83 44.00" xmlns="http://www.w3.org/2000/svg" xmlns:xlink="http://www.w3.org/1999/xlink">
<g id="graph0" class="graph" transform="scale(1 1) rotate(0) translate(4 40)">
<title>G</title>
<polygon fill="#ffffff" stroke="transparent" points="-4,4 -4,-40 589.83,-40 589.83,4 -4,4"/>
<!-- A0 -->
<g id="node1" class="node">
<title>A0</title>
<path fill="none" stroke="#000000" d="M42.1711,-36C42.1711,-36 11.9429,-36 11.9429,-36 5.9429,-36 -.0571,-30 -.0571,-24 -.0571,-24 -.0571,-12 -.0571,-12 -.0571,-6 5.9429,0 11.9429,0 11.9429,0 42.1711,0 42.1711,0 48.1711,0 54.1711,-6 54.1711,-12 54.1711,-12 54.1711,-24 54.1711,-24 54.1711,-30 48.1711,-36 42.1711,-36"/>
<text text-anchor="middle" x="27.057" y="-15" font-family="Helvetica,sans-Serif" font-size="10.00" fill="#000000">Sprite</text>
</g>
<!-- A1 -->
<g id="node2" class="node">
<title>A1</title>
<path fill="none" stroke="#000000" d="M161.141,-36C161.141,-36 102.105,-36 102.105,-36 96.105,-36 90.105,-30 90.105,-24 90.105,-24 90.105,-12 90.105,-12 90.105,-6 96.105,0 102.105,0 102.105,0 161.141,0 161.141,0 167.141,0 173.141,-6 173.141,-12 173.141,-12 173.141,-24 173.141,-24 173.141,-30 167.141,-36 161.141,-36"/>
<text text-anchor="middle" x="131.623" y="-15" font-family="Helvetica,sans-Serif" font-size="10.00" fill="#000000">Sprite Sheet</text>
</g>
<!-- A0&#45;&gt;A1 -->
<g id="edge1" class="edge">
<title>A0&#45;&gt;A1</title>
<path fill="none" stroke="#000000" d="M54.2575,-18C62.0863,-18 70.8985,-18 79.6971,-18"/>
<polygon fill="#000000" stroke="#000000" points="89.9601,-18 79.9601,-22.5001 84.9601,-18 79.9601,-18.0001 79.9601,-18.0001 79.9601,-18.0001 84.9601,-18 79.96,-13.5001 89.9601,-18 89.9601,-18"/>
</g>
<!-- A2 -->
<g id="node3" class="node">
<title>A2</title>
<path fill="none" stroke="#000000" d="M270.4599,-36C270.4599,-36 221.3551,-36 221.3551,-36 215.3551,-36 209.3551,-30 209.3551,-24 209.3551,-24 209.3551,-12 209.3551,-12 209.3551,-6 215.3551,0 221.3551,0 221.3551,0 270.4599,0 270.4599,0 276.4599,0 282.4599,-6 282.4599,-12 282.4599,-12 282.4599,-24 282.4599,-24 282.4599,-30 276.4599,-36 270.4599,-36"/>
<text text-anchor="middle" x="245.9075" y="-15" font-family="Helvetica,sans-Serif" font-size="10.00" fill="#000000">Tile Pixels</text>
</g>
<!-- A1&#45;&gt;A2 -->
<g id="edge2" class="edge">
<title>A1&#45;&gt;A2</title>
<path fill="none" stroke="#000000" d="M173.2056,-18C181.5543,-18 190.3827,-18 198.9006,-18"/>
<polygon fill="#000000" stroke="#000000" points="209.0836,-18 199.0837,-22.5001 204.0836,-18 199.0836,-18.0001 199.0836,-18.0001 199.0836,-18.0001 204.0836,-18 199.0836,-13.5001 209.0836,-18 209.0836,-18"/>
</g>
<!-- A3 -->
<g id="node4" class="node">
<title>A3</title>
<path fill="none" stroke="#000000" d="M383.2073,-36C383.2073,-36 330.5077,-36 330.5077,-36 324.5077,-36 318.5077,-30 318.5077,-24 318.5077,-24 318.5077,-12 318.5077,-12 318.5077,-6 324.5077,0 330.5077,0 330.5077,0 383.2073,0 383.2073,0 389.2073,0 395.2073,-6 395.2073,-12 395.2073,-12 395.2073,-24 395.2073,-24 395.2073,-30 389.2073,-36 383.2073,-36"/>
<text text-anchor="middle" x="356.8575" y="-15" font-family="Helvetica,sans-Serif" font-size="10.00" fill="#000000">Line Buffer</text>
</g>
<!-- A2&#45;&gt;A3 -->
<g id="edge3" class="edge">
<title>A2&#45;&gt;A3</title>
<path fill="none" stroke="#000000" d="M282.5442,-18C290.801,-18 299.6897,-18 308.3483,-18"/>
<polygon fill="#000000" stroke="#000000" points="318.3554,-18 308.3555,-22.5001 313.3554,-18 308.3554,-18.0001 308.3554,-18.0001 308.3554,-18.0001 313.3554,-18 308.3554,-13.5001 318.3554,-18 318.3554,-18"/>
</g>
<!-- A4 -->
<g id="node5" class="node">
<title>A4</title>
<path fill="#ccccff" stroke="#000000" d="M478.2166,-36C478.2166,-36 442.9704,-36 442.9704,-36 436.9704,-36 430.9704,-30 430.9704,-24 430.9704,-24 430.9704,-12 430.9704,-12 430.9704,-6 436.9704,0 442.9704,0 442.9704,0 478.2166,0 478.2166,0 484.2166,0 490.2166,-6 490.2166,-12 490.2166,-12 490.2166,-24 490.2166,-24 490.2166,-30 484.2166,-36 478.2166,-36"/>
<text text-anchor="middle" x="460.5935" y="-15" font-family="Helvetica,sans-Serif" font-size="10.00" fill="#000000">Palette</text>
</g>
<!-- A3&#45;&gt;A4 -->
<g id="edge4" class="edge">
<title>A3&#45;&gt;A4</title>
<path fill="none" stroke="#000000" d="M395.1902,-18C403.4688,-18 412.2421,-18 420.5831,-18"/>
<polygon fill="#000000" stroke="#000000" points="430.8474,-18 420.8474,-22.5001 425.8474,-18 420.8474,-18.0001 420.8474,-18.0001 420.8474,-18.0001 425.8474,-18 420.8473,-13.5001 430.8474,-18 430.8474,-18"/>
</g>
<!-- A5 -->
<g id="node6" class="node">
<title>A5</title>
<path fill="#ccffcc" stroke="#000000" d="M573.6684,-36C573.6684,-36 538.3166,-36 538.3166,-36 532.3166,-36 526.3166,-30 526.3166,-24 526.3166,-24 526.3166,-12 526.3166,-12 526.3166,-6 532.3166,0 538.3166,0 538.3166,0 573.6684,0 573.6684,0 579.6684,0 585.6684,-6 585.6684,-12 585.6684,-12 585.6684,-24 585.6684,-24 585.6684,-30 579.6684,-36 573.6684,-36"/>
<text text-anchor="middle" x="555.9925" y="-15" font-family="Helvetica,sans-Serif" font-size="10.00" fill="#000000">Screen</text>
</g>
<!-- A4&#45;&gt;A5 -->
<g id="edge5" class="edge">
<title>A4&#45;&gt;A5</title>
<path fill="none" stroke="#000000" d="M490.2554,-18C498.3436,-18 507.2433,-18 515.8111,-18"/>
<polygon fill="#000000" stroke="#000000" points="526.0204,-18 516.0204,-22.5001 521.0204,-18 516.0204,-18.0001 516.0204,-18.0001 516.0204,-18.0001 521.0204,-18 516.0203,-13.5001 526.0204,-18 526.0204,-18"/>
</g>
</g>
</svg>
