<?xml version="1.0" encoding="UTF-8" standalone="no"?>
<!DOCTYPE svg PUBLIC "-//W3C//DTD SVG 1.1//EN"
 "http://www.w3.org/Graphics/SVG/1.1/DTD/svg11.dtd">
<!-- Generated by graphviz version 2.40.1 (20161225.0304)
 -->
<!-- Title: G Pages: 1 -->
<svg width="185pt" height="560pt"
 viewBox="0.00 0.00 184.79 560.00" xmlns="http://www.w3.org/2000/svg" xmlns:xlink="http://www.w3.org/1999/xlink">
<g id="graph0" class="graph" transform="scale(1 1) rotate(0) translate(4 556)">
<title>G</title>
<polygon fill="#ffffff" stroke="transparent" points="-4,4 -4,-556 180.7859,-556 180.7859,4 -4,4"/>
<!-- A0 -->
<g id="node1" class="node">
<title>A0</title>
<polygon fill="none" stroke="#000000" points="168.7172,-552 63.2828,-552 63.2828,-516 168.7172,-516 168.7172,-552"/>
<text text-anchor="middle" x="116" y="-531" font-family="Helvetica,sans-Serif" font-size="10.00" fill="#000000">Program Memory</text>
</g>
<!-- A1 -->
<g id="node2" class="node">
<title>A1</title>
<polygon fill="none" stroke="#000000" points="143,-466 89,-466 89,-430 143,-430 143,-466"/>
<text text-anchor="middle" x="116" y="-445" font-family="Helvetica,sans-Serif" font-size="10.00" fill="#000000">Fetch</text>
</g>
<!-- A0&#45;&gt;A1 -->
<g id="edge1" class="edge">
<title>A0&#45;&gt;A1</title>
<path fill="none" stroke="#000000" d="M116,-515.7616C116,-504.3597 116,-489.4342 116,-476.494"/>
<polygon fill="#000000" stroke="#000000" points="116,-466.2121 120.5001,-476.2121 116,-471.2121 116.0001,-476.2121 116.0001,-476.2121 116.0001,-476.2121 116,-471.2121 111.5001,-476.2121 116,-466.2121 116,-466.2121"/>
</g>
<!-- A2 -->
<g id="node3" class="node">
<title>A2</title>
<polygon fill="none" stroke="#000000" points="147.4567,-380 84.5433,-380 84.5433,-344 147.4567,-344 147.4567,-380"/>
<text text-anchor="middle" x="116" y="-359" font-family="Helvetica,sans-Serif" font-size="10.00" fill="#000000">Decode</text>
</g>
<!-- A1&#45;&gt;A2 -->
<g id="edge2" class="edge">
<title>A1&#45;&gt;A2</title>
<path fill="none" stroke="#000000" d="M116,-429.7616C116,-418.3597 116,-403.4342 116,-390.494"/>
<polygon fill="#000000" stroke="#000000" points="116,-380.2121 120.5001,-390.2121 116,-385.2121 116.0001,-390.2121 116.0001,-390.2121 116.0001,-390.2121 116,-385.2121 111.5001,-390.2121 116,-380.2121 116,-380.2121"/>
</g>
<!-- A3 -->
<g id="node4" class="node">
<title>A3</title>
<polygon fill="none" stroke="#000000" points="66.2234,-294 5.7766,-294 5.7766,-258 66.2234,-258 66.2234,-294"/>
<text text-anchor="middle" x="36" y="-273" font-family="Helvetica,sans-Serif" font-size="10.00" fill="#000000">Control</text>
</g>
<!-- A2&#45;&gt;A3 -->
<g id="edge3" class="edge">
<title>A2&#45;&gt;A3</title>
<path fill="none" stroke="#000000" d="M99.0341,-343.7616C87.6851,-331.5615 72.5836,-315.3273 60.0071,-301.8076"/>
<polygon fill="#000000" stroke="#000000" points="52.9415,-294.2121 63.0474,-298.469 56.347,-297.873 59.7526,-301.534 59.7526,-301.534 59.7526,-301.534 56.347,-297.873 56.4577,-304.599 52.9415,-294.2121 52.9415,-294.2121"/>
</g>
<!-- A4 -->
<g id="node5" class="node">
<title>A4</title>
<polygon fill="none" stroke="#000000" points="148.1251,-294 83.8749,-294 83.8749,-258 148.1251,-258 148.1251,-294"/>
<text text-anchor="middle" x="116" y="-273" font-family="Helvetica,sans-Serif" font-size="10.00" fill="#000000">Execute</text>
</g>
<!-- A2&#45;&gt;A4 -->
<g id="edge4" class="edge">
<title>A2&#45;&gt;A4</title>
<path fill="none" stroke="#000000" d="M116,-343.7616C116,-332.3597 116,-317.4342 116,-304.494"/>
<polygon fill="#000000" stroke="#000000" points="116,-294.2121 120.5001,-304.2121 116,-299.2121 116.0001,-304.2121 116.0001,-304.2121 116.0001,-304.2121 116,-299.2121 111.5001,-304.2121 116,-294.2121 116,-294.2121"/>
</g>
<!-- A6 -->
<g id="node7" class="node">
<title>A6</title>
<polygon fill="none" stroke="#000000" points="88,-208 0,-208 0,-172 88,-172 88,-208"/>
<text text-anchor="middle" x="44" y="-187" font-family="Helvetica,sans-Serif" font-size="10.00" fill="#000000">Data Memory</text>
</g>
<!-- A4&#45;&gt;A6 -->
<g id="edge6" class="edge">
<title>A4&#45;&gt;A6</title>
<path fill="none" stroke="#000000" d="M100.7307,-257.7616C90.6121,-245.6756 77.179,-229.6304 65.9243,-216.1874"/>
<polygon fill="#000000" stroke="#000000" points="59.2473,-208.2121 69.1172,-212.991 62.457,-212.0459 65.6667,-215.8797 65.6667,-215.8797 65.6667,-215.8797 62.457,-212.0459 62.2163,-218.7684 59.2473,-208.2121 59.2473,-208.2121"/>
</g>
<!-- A7 -->
<g id="node8" class="node">
<title>A7</title>
<polygon fill="none" stroke="#000000" points="148.3327,-122 71.6673,-122 71.6673,-86 148.3327,-86 148.3327,-122"/>
<text text-anchor="middle" x="110" y="-101" font-family="Helvetica,sans-Serif" font-size="10.00" fill="#000000">Write Back</text>
</g>
<!-- A4&#45;&gt;A7 -->
<g id="edge7" class="edge">
<title>A4&#45;&gt;A7</title>
<path fill="none" stroke="#000000" d="M115.3692,-257.9181C114.3249,-227.981 112.229,-167.8972 110.9872,-132.2989"/>
<polygon fill="#000000" stroke="#000000" points="110.6313,-122.0977 115.4773,-131.9347 110.8057,-127.0947 110.98,-132.0917 110.98,-132.0917 110.98,-132.0917 110.8057,-127.0947 106.4828,-132.2486 110.6313,-122.0977 110.6313,-122.0977"/>
</g>
<!-- A5 -->
<g id="node6" class="node">
<title>A5</title>
<polygon fill="none" stroke="#000000" points="152.1081,-36 67.8919,-36 67.8919,0 152.1081,0 152.1081,-36"/>
<text text-anchor="middle" x="110" y="-15" font-family="Helvetica,sans-Serif" font-size="10.00" fill="#000000">Register File</text>
</g>
<!-- A5&#45;&gt;A2 -->
<g id="edge5" class="edge">
<title>A5&#45;&gt;A2</title>
<path fill="none" stroke="#000000" d="M127.2301,-36.2533C138.0962,-49.0762 151.1449,-67.2311 157,-86 184.5302,-174.25 181.7727,-204.9366 157,-294 152.8681,-308.8553 144.5199,-323.7106 136.4286,-335.73"/>
<polygon fill="#000000" stroke="#000000" points="130.6463,-343.9402 132.7253,-333.1732 133.5253,-339.8523 136.4044,-335.7644 136.4044,-335.7644 136.4044,-335.7644 133.5253,-339.8523 140.0835,-338.3556 130.6463,-343.9402 130.6463,-343.9402"/>
</g>
<!-- A5&#45;&gt;A6 -->
<g id="edge8" class="edge">
<title>A5&#45;&gt;A6</title>
<path fill="none" stroke="#000000" d="M94.3059,-36.0796C83.8347,-49.1072 70.6345,-67.5708 63,-86 52.9043,-110.3703 48.1558,-140.1554 45.9326,-161.5947"/>
<polygon fill="#000000" stroke="#000000" points="45.0083,-171.6802 41.4398,-161.3112 45.4647,-166.7011 45.921,-161.7219 45.921,-161.7219 45.921,-161.7219 45.4647,-166.7011 50.4022,-162.1326 45.0083,-171.6802 45.0083,-171.6802"/>
</g>
<!-- A6&#45;&gt;A7 -->
<g id="edge9" class="edge">
<title>A6&#45;&gt;A7</title>
<path fill="none" stroke="#000000" d="M57.9969,-171.7616C67.2723,-159.6756 79.586,-143.6304 89.9027,-130.1874"/>
<polygon fill="#000000" stroke="#000000" points="96.0233,-122.2121 93.5049,-132.8849 92.9792,-126.1787 89.935,-130.1452 89.935,-130.1452 89.935,-130.1452 92.9792,-126.1787 86.3651,-127.4055 96.0233,-122.2121 96.0233,-122.2121"/>
</g>
<!-- A7&#45;&gt;A5 -->
<g id="edge10" class="edge">
<title>A7&#45;&gt;A5</title>
<path fill="none" stroke="#000000" d="M110,-85.7616C110,-74.3597 110,-59.4342 110,-46.494"/>
<polygon fill="#000000" stroke="#000000" points="110,-36.2121 114.5001,-46.2121 110,-41.2121 110.0001,-46.2121 110.0001,-46.2121 110.0001,-46.2121 110,-41.2121 105.5001,-46.2121 110,-36.2121 110,-36.2121"/>
</g>
</g>
</svg>
